PSF_ID_stride4.mot
nRows=8
nColumns=38

name PSF_ID_stride4.mot
datacolumns 38
datarows 8
range 2.1750000000 2.2100000000
endheader
time	pelvis_tilt_moment	pelvis_list_moment	pelvis_rotation_moment	pelvis_tx_force	pelvis_ty_force	pelvis_tz_force	hip_flexion_r_moment	hip_adduction_r_moment	hip_rotation_r_moment	knee_angle_r_moment	ankle_angle_r_moment	subtalar_angle_r_moment	mtp_angle_r_moment	hip_flexion_l_moment	hip_adduction_l_moment	hip_rotation_l_moment	knee_angle_l_moment	ankle_angle_l_moment	subtalar_angle_l_moment	mtp_angle_l_moment	lumbar_extension_moment	lumbar_bending_moment	lumbar_rotation_moment	arm_flex_r_moment	arm_add_r_moment	arm_rot_r_moment	elbow_flex_r_moment	pro_sup_r_moment	wrist_flex_r_moment	wrist_dev_r_moment	arm_flex_l_moment	arm_add_l_moment	arm_rot_l_moment	elbow_flex_l_moment	pro_sup_l_moment	wrist_flex_l_moment	wrist_dev_l_moment
        2.1750000000	       32.1666932583	      -60.9431262855	       -7.2958956162	      -21.7421153747	      231.4340109816	      130.9137776671	      -87.5034817340	       -7.4053074703	       -2.5533709371	      -52.6021026839	        3.3630966362	        0.0756148111	        0.0288041277	       49.7117475679	      -18.2695047438	       11.6588064130	       23.0053914991	        4.3503418027	       -0.9921642563	        0.2339506828	        1.3762202420	      -37.7420157495	       11.4166657620	        0.2015271917	        1.8430411080	        1.5726705515	        0.7602764406	        0.0469674719	        0.1823719508	       -0.0110679340	       -3.1916862602	       -1.3084045759	       -0.9337591919	       -0.0206664915	       -0.0451246794	       -0.1051340790	       -0.0231372186	
        2.1800000000	       45.7009374699	       -7.8989638253	        5.8381412024	      -53.1187645033	      395.0825441570	      135.8383395584	      -33.2041723277	       -8.2741036525	        1.1397425484	      -19.1157715668	       16.7654441506	        2.7466291023	        0.1133439085	       43.4122748761	      -12.3290660127	       10.1537123984	       21.6149613935	        4.4272078946	       -0.9565453749	        0.2506955395	       18.7666179976	      -44.5359613824	       15.0219900668	       -0.7289166784	        2.3320338740	        2.1353732301	        1.4272230324	        0.0501502800	        0.2562799715	       -0.0460763266	       -5.0920944796	       -1.4461157388	       -1.0099149991	        0.5329094602	       -0.0624768686	       -0.1056845136	       -0.0671497546	
        2.1850000000	       61.8052221618	       41.8852639109	       18.4588341361	      -79.1031379531	      479.8139340858	      117.9251894371	       -4.3345294428	      -20.2330325674	       11.1947823759	        4.8143650410	       22.2390292131	        8.5870386614	        0.1979181404	       41.7404015835	       -9.1683546753	        8.6947025658	       20.2744375101	        4.4898234546	       -0.9184374993	        0.2607625638	       37.4520949028	      -48.0639668258	       17.3700554611	       -1.5394905326	        2.7565160950	        2.5772317580	        2.1778343132	        0.0498281814	        0.3186819090	       -0.0939698958	       -6.4982902352	       -1.4777757246	       -1.0249921564	        1.2458940095	       -0.0789983010	       -0.0967129566	       -0.1243186193	
        2.1900000000	       75.7224998764	       64.7791432859	       29.9231105276	      -98.9851404895	      511.3760227370	       80.3905906361	       -2.4181365321	      -38.6299882064	       26.9453460828	       11.2066454200	       11.3069431058	       16.4235448313	        0.2743506803	       45.0022091247	       -7.7260674411	        7.3059516263	       19.3532848628	        4.5419234568	       -0.8735295658	        0.2657782385	       53.4609946629	      -49.1716789238	       18.5545804662	       -2.1029246099	        3.0682997468	        2.8632610354	        2.8795449926	        0.0421913986	        0.3632590939	       -0.1446166176	       -7.3306364956	       -1.3790490938	       -0.9659392171	        1.9678551362	       -0.0926466461	       -0.0772196163	       -0.1822432121	
        2.1950000000	       82.3208012557	       65.8408144082	       39.0198733412	      -93.3200955269	      448.6485362859	       23.3821080976	      -16.1976110611	      -57.7231277421	       42.3363139231	        9.9068899436	       -6.7525503163	       24.9992160902	        0.3292687156	       51.5623088722	       -6.7599133832	        5.8276052618	       19.5059215581	        4.5371704487	       -0.8090256806	        0.2632503036	       59.3258240838	      -46.8362677456	       18.0029933564	       -2.1184636264	        3.0185944359	        2.8073603951	        3.2872187397	        0.0316208816	        0.3619280853	       -0.1816580116	       -7.1925177468	       -1.1189979036	       -0.8223627235	        2.4702114684	       -0.0943579499	       -0.0527746694	       -0.2191372164	
        2.2000000000	       80.2422045389	       58.2359767986	       44.8304528256	      -66.9631993599	      278.5782461331	      -38.8199177338	      -49.6191973231	      -71.0901059094	       53.8661382873	        5.4778258659	      -30.1174104581	       33.0607518044	        0.3504948538	       60.3509507717	       -5.3666489292	        4.1975027494	       20.3902688837	        4.4836112448	       -0.7193803778	        0.2538729734	       57.9082900164	      -40.0222329263	       16.0229427054	       -1.9303884518	        2.6766740220	        2.4968889617	        3.3218728545	        0.0182735675	        0.3349260588	       -0.1926573176	       -6.4756205990	       -0.6061495396	       -0.5460101148	        2.5655537294	       -0.0903331037	       -0.0223962782	       -0.2235203763	
        2.2050000000	       65.0728584817	       32.1282039642	       46.5772045354	      -18.5622231383	       51.4733042343	      -76.8061472118	      -90.4520760823	      -74.6576546786	       57.6324976354	        3.1180547085	      -51.9409718323	       39.2246830663	        0.3511842005	       67.9517439436	       -2.8449270815	        2.4682048588	       22.0857609485	        4.3345621573	       -0.6096493569	        0.2376103175	       48.5704746388	      -29.6706237651	       12.8255099004	       -1.4388622242	        1.9042518722	        1.8713765415	        3.1165535894	        0.0034557790	        0.2675520810	       -0.1915691215	       -5.1910578657	        0.1415113645	       -0.1442865174	        2.5156840247	       -0.0738557441	        0.0133094023	       -0.2086455430	
        2.2100000000	       36.6738248632	        0.4717164458	       45.3066009280	       36.8334994731	     -178.0769073912	      -86.8009093088	     -130.0787616072	      -68.4287366604	       55.6716158616	        5.0571671252	      -67.7222111560	       42.7935478475	        0.3201745201	       72.3004996543	        0.6598601872	        0.8509156277	       23.9465549379	        4.1080592102	       -0.4957044335	        0.2173949617	       36.0565828049	      -17.3004890406	        9.2149170312	       -0.9036382827	        0.9110871710	        1.1089104073	        2.7183669843	       -0.0123588840	        0.1853274418	       -0.1774100107	       -3.7620248773	        1.0475608460	        0.3392439210	        2.2469878779	       -0.0526267123	        0.0531639169	       -0.1760432949	
